HIERARCHY
ROOT hip
{
	OFFSET 0.000000 0.000000 0.000000
	CHANNELS 6 Xposition Yposition Zposition Xrotation Zrotation Yrotation 
	JOINT abdomen
	{
		OFFSET 0.000000 3.422050 0.000000
		CHANNELS 3 Xrotation Zrotation Yrotation 
		JOINT chest
		{
			OFFSET 0.000000 8.486693 -0.6844110
			CHANNELS 3 Xrotation Zrotation Yrotation 
			JOINT neck
			{
				OFFSET 0.000000 10.26616 -0.2737640
				CHANNELS 3 Xrotation Zrotation Yrotation 
				JOINT head
				{
					OFFSET 0.000000 3.148285 0.000000
					CHANNELS 3 Xrotation Zrotation Yrotation 
					End Site
					{
						OFFSET 0.000000 3.148289 0.000000
					}
				}
			}
			JOINT lCollar
			{
				OFFSET 3.422053 6.707223 -0.8212930
				CHANNELS 3 Yrotation Zrotation Xrotation 
				JOINT lShldr
				{
					OFFSET 3.285171 0.000000 0.000000
					CHANNELS 3 Zrotation Yrotation Xrotation 
					JOINT lForeArm
					{
						OFFSET 10.12928 0.000000 0.000000
						CHANNELS 3 Yrotation Zrotation Xrotation 
						JOINT lHand
						{
							OFFSET 8.486692 0.000000 0.000000
							CHANNELS 3 Zrotation Yrotation Xrotation 
							End Site
							{
								OFFSET 4.106464 0.000000 0.000000
							}
						}
					}
				}
			}
			JOINT rCollar
			{
				OFFSET -3.558935 6.707223 -0.8212930
				CHANNELS 3 Yrotation Zrotation Xrotation 
				JOINT rShldr
				{
					OFFSET -3.148289 0.000000 0.000000
					CHANNELS 3 Zrotation Yrotation Xrotation 
					JOINT rForeArm
					{
						OFFSET -10.26616 0.000000 0.000000
						CHANNELS 3 Yrotation Zrotation Xrotation 
						JOINT rHand
						{
							OFFSET -8.349810 0.000000 0.000000
							CHANNELS 3 Zrotation Yrotation Xrotation 
							End Site
							{
								OFFSET -4.106464 0.000000 0.000000
							}
						}
					}
				}
			}
		}
	}
	JOINT lThigh
	{
		OFFSET 5.338403 -1.642589 1.368821
		CHANNELS 3 Xrotation Zrotation Yrotation 
		JOINT lShin
		{
			OFFSET -2.053232 -20.12167 0.000000
			CHANNELS 3 Xrotation Zrotation Yrotation 
			JOINT lFoot
			{
				OFFSET 0.000000 -19.30038 -1.231939
				CHANNELS 3 Xrotation Yrotation Zrotation 
				End Site
				{
					OFFSET 0.000000 -2.463878 4.653993
				}
			}
		}
	}
	JOINT rThigh
	{
		OFFSET -5.338403 -1.642589 1.368821
		CHANNELS 3 Xrotation Zrotation Yrotation 
		JOINT rShin
		{
			OFFSET 2.053232 -20.12167 0.000000
			CHANNELS 3 Xrotation Zrotation Yrotation 
			JOINT rFoot
			{
				OFFSET 0.000000 -19.30038 -1.231939
				CHANNELS 3 Xrotation Yrotation Zrotation 
				End Site
				{
					OFFSET 0.000000 -2.463878 4.653993
				}
			}
		}
	}
}
MOTION
Frames:	6
Frame Time:	0.03333333
0.000000 43.52852 0.000000 0.000000 0.000000 0.000000 0.000000 0.000000 0.000000 0.000000 0.000000 0.000000 0.000000 0.000000 0.000000 0.000000 0.000000 0.000000 0.000000 0.000000 0.000000 0.000000 0.000000 0.000000 0.000000 0.000000 0.000000 0.000000 0.000000 0.000000 0.000000 0.000000 0.000000 0.000000 0.000000 0.000000 0.000000 0.000000 0.000000 0.000000 0.000000 0.000000 0.000000 0.000000 0.000000 0.000000 0.000000 0.000000 0.000000 0.000000 0.000000 0.000000 0.000000 0.000000 0.000000 0.000000 0.000000 0.000000 0.000000 0.000000 
0.000000 43.52852 0.000000 -9.000000 0.000000 0.000000 0.000000 0.000000 0.000000 -6.000000 0.000000 0.000000 0.000000 0.000000 0.000000 0.000000 0.000000 0.000000 -9.000000 -33.00000 -7.000000 -22.00000 -11.00000 64.00000 -75.00000 0.000000 -23.00000 -14.00000 0.000000 -28.00000 0.000000 18.00000 12.00000 47.00000 17.00000 41.00000 96.00000 0.000000 0.000000 15.00000 0.000000 0.000000 3.528867 6.000000 -22.00000 22.00000 0.1304725 0.006650759 -12.00000 0.0962043 0.05544453 3.528867 -6.000000 22.00000 22.00000 -0.1304725 -0.006650759 -12.00000 -0.0962043 -0.05544453 
0.000000 43.52852 0.000000 -8.887182 0.000000 0.000000 -0.04919342 -0.01974218 -0.0009151886 -6.004374 0.005541272 0.009722667 0.000000 0.000000 0.000000 0.007078915 0.000000 0.01101165 -8.992566 -32.99123 -6.999402 -22.00162 -11.00532 64.03889 -75.02945 -0.1152633 -23.08579 -14.09214 0.02045379 -28.07999 -0.002513732 17.99503 12.00216 46.99817 17.00926 41.03093 96.00518 0.03031041 -0.02832085 15.06105 -0.04988464 -0.07395757 3.492591 6.033031 -22.00001 21.86131 0.1413762 -0.01979755 -12.01133 0.1268904 0.07196971 3.492591 -6.033031 22.00001 21.86131 -0.1413762 0.01979755 -12.01133 -0.1268904 -0.07196971 
0.000000 43.52852 0.000000 -8.554386 0.000000 0.000000 -0.1943071 -0.07797881 -0.003614866 -6.017277 0.02188724 0.03840316 0.000000 0.000000 0.000000 0.02829339 0.000000 0.04401194 -8.970637 -32.96538 -6.997639 -22.00639 -11.02101 64.15361 -75.11632 -0.4552738 -23.33885 -14.36393 0.08078957 -28.31597 -0.009928887 17.98036 12.00852 46.99277 17.03658 41.12218 96.02047 0.1197218 -0.1118634 15.24112 -0.1970373 -0.2921219 3.385582 6.130469 -22.00005 21.45221 0.1735406 -0.09781633 -12.04473 0.2174100 0.1207166 3.385582 -6.130469 22.00005 21.45221 -0.1735406 0.09781633 -12.04473 -0.2174100 -0.1207166 
0.000000 43.52852 0.000000 -8.018297 0.000000 0.000000 -0.4280647 -0.1717898 -0.007963667 -6.038062 0.0482183 0.08460341 0.000000 0.000000 0.000000 0.06357668 0.000000 0.09889705 -8.935313 -32.92373 -6.994798 -22.01408 -11.04628 64.33841 -75.25626 -1.002983 -23.74649 -14.80174 0.1779820 -28.69609 -0.02187366 17.95673 12.01877 46.98409 17.08060 41.26916 96.04509 0.2637511 -0.2464386 15.53120 -0.4340795 -0.6435542 3.213205 6.287428 -22.00011 20.79321 0.2253528 -0.2234936 -12.09855 0.3632244 0.1992411 3.213205 -6.287428 22.00011 20.79321 -0.2253528 0.2234936 -12.09855 -0.3632244 -0.1992411 
0.000000 43.52852 0.000000 -7.305797 0.000000 0.000000 -0.7387456 -0.2964715 -0.01374354 -6.065686 0.08321419 0.1460069 0.000000 0.000000 0.000000 0.1128178 0.000000 0.1754943 -8.888364 -32.86838 -6.991022 -22.02429 -11.07986 64.58401 -75.44224 -1.730928 -24.28828 -15.38363 0.3071578 -29.20130 -0.03774913 17.92533 12.03240 46.97254 17.13909 41.46451 96.07782 0.4551764 -0.4252988 15.91673 -0.7491258 -1.110633 2.984104 6.496038 -22.00019 19.91735 0.2942150 -0.3905278 -12.17008 0.5570223 0.3036058 2.984104 -6.496038 22.00019 19.91735 -0.2942150 0.3905278 -12.17008 -0.5570223 -0.3036058 
